<svg x="0" y="0" width="48" height="48" version="1.1" xmlns="http://www.w3.org/2000/svg" xmlns:xlink="http://www.w3.org/1999/xlink"><defs><linearGradient x1="11.68966" y1="11.68966" x2="39.84587" y2="39.84586" gradientUnits="userSpaceOnUse" id="color-1"><stop offset="0" stop-color="#000000" stop-opacity="0.7"></stop><stop offset="1" stop-color="#000000" stop-opacity="0"></stop></linearGradient><filter id="dropshadow"><feColorMatrix type="matrix" values="0 0 0 0 .05  0 0 0 0 .15  0 0 0 0 .1  0 0 0 .8 0"></feColorMatrix> <feOffset dx="0" dy="1"></feOffset> <feGaussianBlur stdDeviation="1"></feGaussianBlur> <feComposite in="SourceGraphic"></feComposite></filter></defs><g fill="none" stroke="none" stroke-width="none" stroke-linecap="butt" stroke-linejoin="miter" stroke-miterlimit="none" stroke-dasharray="" stroke-dashoffset="0" font-family="none" font-weight="normal" font-size="none" text-anchor="start" mix-blend-mode="normal"><g fill="#000000" stroke="none" stroke-width="1" stroke-miterlimit="4" font-family="&quot;Open Sans&quot;, sans-serif" font-size="14"></g><path d="M3,24c0,-11.59798 9.40202,-21 21,-21c11.59798,0 21,9.40202 21,21c0,11.59798 -9.40202,21 -21,21c-11.59798,0 -21,-9.40202 -21,-21z" fill="#777777" stroke-width="1" stroke-miterlimit="10" font-family="sans-serif" font-size="12" filter="url(#dropshadow)"></path><path d="M27.05707,29.47126l2.41419,0c1.91464,0 3.64633,-0.78809 4.88816,-2.05736c-0.28589,-0.10322 -0.54203,-0.26802 -0.7525,-0.4785l-3.53553,-3.53553c-0.37102,-0.37102 -0.60013,-0.88395 -0.60013,-1.45159c0,-0.1597 0.01813,-0.31508 0.05246,-0.46417c-0.00679,-0.00661 -0.01354,-0.01326 -0.02024,-0.01997l-0.00382,-0.00382c0.00127,0.00127 0.00254,0.00255 0.00381,0.00382l-3.53553,-3.53553c-0.37102,-0.37102 -0.60013,-0.88395 -0.60013,-1.45159c0,-0.4116 0.12046,-0.79444 0.32814,-1.11526c-0.91264,0.13679 -1.79254,0.37379 -2.62812,0.69943l2.49976,2.49976c0.37102,0.37102 0.60013,0.88395 0.60013,1.45159c0,1.13528 -0.91643,2.05172 -2.05172,2.05172l-2.05173,-2.05173c0,0.00001 0,0.00001 0,0.00002l2.05172,2.05172c-0.56764,0 -1.08057,-0.22911 -1.45159,-0.60013l-3.21259,-3.21259c-0.68134,0.59377 -1.29672,1.26131 -1.83369,1.99015c0.11178,0.07478 0.21576,0.16026 0.31049,0.25499l3.53553,3.53553c0.37102,0.37102 0.60013,0.88395 0.60013,1.45159c0,1.13528 -0.91643,2.05172 -2.05172,2.05172l-2.05173,-2.05173c0,0 0,0.00001 0,0.00001l2.05173,2.05173c-0.56764,0 -1.08057,-0.22911 -1.45159,-0.60013c0,0 -0.00382,-0.00382 -0.00382,-0.00382c0.00127,0.00127 0.00254,0.00255 0.00381,0.00382l-2.84659,-2.84659c-0.31843,1.09372 -0.48917,2.25031 -0.48917,3.44672c0,2.49493 0.74247,4.81667 2.01848,6.7563c1.93963,1.27602 4.26139,2.0185 6.75633,2.0185c1.13529,0 2.05172,-0.91644 2.05172,-2.05172c0,-0.53345 -0.19833,-1.01218 -0.53345,-1.37465c-0.32144,-0.36247 -0.51293,-0.83437 -0.51293,-1.36098c0,-1.13529 0.91644,-2.05172 2.05172,-2.05172l3.53553,3.53553c-1.13529,0 -2.05172,0.91644 -2.05172,2.05172c0,0.52661 0.19149,0.99851 0.51293,1.36098c0.33511,0.36247 0.53345,0.84121 0.53345,1.37465c0,1.13529 -0.91644,2.05172 -2.05172,2.05172c-3.39902,0 -6.47661,-1.37807 -8.70443,-3.6059l-0.00937,-0.00937c0.00312,0.00312 0.00624,0.00625 0.00936,0.00937l-3.53553,-3.53553c-2.22783,-2.22782 -3.6059,-5.30541 -3.6059,-8.70443c0,-6.79804 5.5123,-12.31034 12.31034,-12.31034c3.66108,0 6.94925,1.42024 9.20433,3.67532l3.53553,3.53553c1.93224,1.93224 3.10601,4.47739 3.10601,7.2672c0,3.77517 -3.06391,6.83908 -6.83908,6.83908l-2.41419,0z M36.22052,23.74262c0.05909,-0.36144 0.08982,-0.73237 0.08982,-1.11044c0,-1.93511 -0.56474,-3.75252 -1.55561,-5.32931c-1.61246,-1.03921 -3.51956,-1.73925 -5.58872,-1.98257l3.24065,3.24065c0.37102,0.37102 0.60013,0.88395 0.60013,1.45159c0,0.1597 -0.01814,0.31507 -0.05246,0.46417c0.00679,0.00661 0.01354,0.01326 0.02024,0.01997l0.00382,0.00382c-0.00127,-0.00127 -0.00254,-0.00255 -0.00381,-0.00382z M34.63642,27.11344c0,0 0,0 0,-0.00001l-1.62963,-1.62963c0,0 0,0.00001 0,0.00001z M18.52874,21.94827l-1.23882,-1.23882c0,0 -0.00001,0.00001 -0.00001,0.00001l1.23883,1.23883c0,-0.00001 0,-0.00001 0,-0.00002z M29.47126,16.47701l-1.23436,-1.23436c-0.00001,0 -0.00001,0 -0.00002,0l1.23438,1.23438c0,-0.00001 0,-0.00001 0,-0.00002z M36.06809,24.44166c0,0 0,-0.00001 0,-0.00001l-1.00957,-1.00957c0,0 -0.00001,0 -0.00001,0z M32.70782,21.08139c0,0 0,0 0,0.00001l0.86689,0.86689c0,0 0,-0.00001 0,-0.00001z M29.77023,20.87942l-0.86689,-0.86689c0,0 0,0.00001 0,0.00001c0,0 0.86689,0.86689 0.86689,0.86689c0,0 0,0 0,-0.00001z M22.63219,16.47702l-0.1637,-0.1637c0,0 0,0 -0.00001,0c0,0 0.16371,0.16371 0.16371,0.16371c0,0 0,-0.00001 0,-0.00001z" fill="url(#color-1)" stroke-width="1" stroke-miterlimit="10" font-family="sans-serif" font-size="12"></path><path d="M36.31034,22.63218c0,3.77517 -3.06391,6.83908 -6.83908,6.83908l-2.41419,0c-1.13529,0 -2.05172,0.91644 -2.05172,2.05172c0,0.52661 0.19149,0.99851 0.51293,1.36098c0.33511,0.36247 0.53345,0.84121 0.53345,1.37465c0,1.13529 -0.91644,2.05172 -2.05172,2.05172c-6.79804,0 -12.31034,-5.5123 -12.31034,-12.31034c0,-6.79804 5.5123,-12.31034 12.31034,-12.31034c6.79804,0 12.31034,4.89678 12.31034,10.94252z M18.52874,21.94828c0,-1.13529 -0.91644,-2.05172 -2.05172,-2.05172c-1.13529,0 -2.05172,0.91644 -2.05172,2.05172c0,1.13529 0.91644,2.05172 2.05172,2.05172c1.13529,0 2.05172,-0.91644 2.05172,-2.05172z M22.63218,16.47702c0,-1.13529 -0.91644,-2.05172 -2.05172,-2.05172c-1.13529,0 -2.05172,0.91644 -2.05172,2.05172c0,1.13529 0.91644,2.05172 2.05172,2.05172c1.13529,0 2.05172,-0.91644 2.05172,-2.05172z M29.47126,16.47702c0,-1.13529 -0.91644,-2.05172 -2.05172,-2.05172c-1.13529,0 -2.05172,0.91644 -2.05172,2.05172c0,1.13529 0.91644,2.05172 2.05172,2.05172c1.13529,0 2.05172,-0.91644 2.05172,-2.05172z M33.57471,21.94828c0,-1.13529 -0.91644,-2.05172 -2.05172,-2.05172c-1.13529,0 -2.05172,0.91644 -2.05172,2.05172c0,1.13529 0.91644,2.05172 2.05172,2.05172c1.13529,0 2.05172,-0.91644 2.05172,-2.05172z" fill="#ffffff" stroke="none" stroke-width="0" stroke-miterlimit="4" font-family="&quot;Open Sans&quot;, sans-serif" font-size="14"></path></g></svg>